<svg xmlns="http://www.w3.org/2000/svg" width="120" height="24" viewBox="0 0 120 24"><path fill="#fff" d="M9.88 10.585c-.197-.195-.197-.512 0-.707.194-.195.51-.195.706 0l4.243 4.243c.194.196.194.513 0 .708-.196.195-.513.195-.708 0L9.88 10.585zM6.343 8.464c-.195-.195-.195-.512 0-.707l1.414-1.415c.195-.195.512-.195.707 0l3.89 3.89c.39-.392.39-1.024 0-1.415L8.817 5.282c-.39-.39-1.023-.39-1.414 0l-2.12 2.122c-.392.39-.392 1.023 0 1.414l3.534 3.536c.39.39 1.024.39 1.415 0l-3.89-3.89zM17.657 15.535c.196.195.196.512 0 .707l-1.414 1.414c-.195.195-.512.195-.707 0l-3.89-3.89c-.39.392-.39 1.023 0 1.415l3.537 3.536c.39.39 1.023.39 1.414 0l2.122-2.12c.39-.393.39-1.024 0-1.415l-3.537-3.536c-.39-.39-1.023-.39-1.414 0l3.887 3.89zM42.09 12.294C40.787 17.586 32.03 19.832 28 14.337c1.543 1.474 4.23 1.604 5.934-.157-1 .146-1.727-.836-.5-1.365-1.102.12-1.717-.467-1.968-.966.258-.27.544-.398 1.096-.434-1.21-.286-1.655-.877-1.792-1.595.335-.08.754-.148.984-.117-1.06-.554-1.426-1.387-1.368-2.014 1.892.703 3.097 1.268 4.105 1.808.36.192.76.537 1.213.977.575-1.523 1.287-3.092 2.503-3.87-.02.176-.114.34-.24.474.347-.315.795-.53 1.25-.594-.05.344-.544.536-.842.648.226-.07 1.424-.605 1.555-.3.154.346-.828.506-.994.565-.126.04-.25.087-.373.137 1.518-.152 2.97 1.103 3.39 2.658.03.112.062.237.09.367.555.207 1.562-.01 1.885-.21-.235.555-.843.964-1.742 1.038.432.18 1.25.28 1.813.184-.357.382-.93.728-1.91.72zM40 8.982c-.554 0-1.002.45-1.002 1.002 0 .553.448 1.002 1 1.002S41 10.536 41 9.984c0-.553-.448-1.002-1-1.002zM61.25 26h-3V14h-2v-2.758h2V9.587c0-2.25.935-3.587 3.587-3.587h1.913v2.758h-1.395c-1.033 0-1.105.385-1.105 1.104v1.38h2.5L63.45 14h-2.2v12zM82.214 11.567c.36-.364.394-.866.394-1.15 0-1.135-.676-2.898-1.983-2.898-.41 0-.85.204-1.104.52-.266.33-.345.756-.345 1.165 0 1.056.614 2.804 1.97 2.804.39-.002.816-.192 1.07-.443m-.458 2.994c-.126-.017-.206-.017-.362-.017-.143 0-.992.03-1.653.253-.347.125-1.354.502-1.354 1.622 0 1.116 1.088 1.92 2.772 1.92 1.51 0 2.313-.725 2.313-1.7 0-.804-.52-1.228-1.716-2.077zm1.117-6.995c.362.3 1.118.93 1.118 2.128 0 1.164-.66 1.716-1.323 2.235-.205.204-.44.426-.44.773 0 .345.235.534.41.677l.565.44c.69.583 1.322 1.118 1.322 2.206 0 1.48-1.434 2.976-4.143 2.976C78.104 19 77 17.912 77 16.747c0-.566.283-1.37 1.213-1.92.977-.602 2.3-.68 3.008-.727-.22-.284-.472-.58-.472-1.07 0-.267.078-.425.158-.612-.176.014-.348.03-.504.03-1.67 0-2.614-1.245-2.614-2.473 0-.724.33-1.527 1.007-2.11.898-.74 1.97-.865 2.818-.865h3.246l-1.01.565h-.976zM91 9.35h-2.352V7h-.73v2.35h-2.352v.732h2.352v2.35h.73v-2.35H91zM108 18.94l5.973-6c1.367-1 1.37-3.61.004-4.98-1.367-1.365-3.58-1.022-4.947-.022l-1.028 1-1.028-1c-1.367-1-3.58-1.343-4.947.023-1.367 1.368-1.363 3.978.004 4.98l5.97 6z"/></svg>