<svg version="1.1" id="social-icons" xmlns="http://www.w3.org/2000/svg" xmlns:xlink="http://www.w3.org/1999/xlink" x="0px" y="0px" width="120px" height="24px" viewBox="0 0 120 24" xml:space="preserve">
	<path fill="#FFFFFF" d="M9.879,10.585c-0.196-0.195-0.196-0.512,0-0.707c0.195-0.195,0.512-0.195,0.707,0l4.243,4.243c0.195,0.195,0.195,0.512,0,0.707c-0.195,0.195-0.512,0.195-0.707,0L9.879,10.585z"/>
	<path fill="#FFFFFF" d="M6.343,8.464c-0.195-0.195-0.195-0.512,0-0.707l1.414-1.415c0.195-0.195,0.512-0.195,0.707,0l3.889,3.889c0.391-0.391,0.391-1.023,0-1.414L8.818,5.282c-0.391-0.391-1.023-0.391-1.414,0L5.283,7.404c-0.391,0.39-0.391,1.023,0,1.414l3.535,3.536c0.391,0.391,1.024,0.39,1.415,0L6.343,8.464z"/>
	<path fill="#FFFFFF" d="M17.657,15.535c0.196,0.195,0.196,0.512,0,0.707l-1.414,1.414c-0.195,0.195-0.512,0.195-0.707,0l-3.889-3.889c-0.391,0.391-0.391,1.022,0,1.414l3.536,3.535c0.391,0.391,1.023,0.391,1.414,0l2.122-2.121c0.391-0.392,0.391-1.023,0-1.414l-3.536-3.537c-0.391-0.391-1.023-0.391-1.414,0L17.657,15.535z"/>
	<path fill="#FFFFFF" d="M42.091,12.294C40.786,17.586,32.028,19.832,28,14.337c1.543,1.474,4.23,1.604,5.934-0.157c-0.999,0.146-1.727-0.836-0.499-1.365c-1.103,0.121-1.718-0.467-1.969-0.966c0.258-0.27,0.544-0.397,1.096-0.433c-1.209-0.286-1.655-0.877-1.792-1.595c0.335-0.08,0.754-0.149,0.984-0.118c-1.059-0.554-1.426-1.387-1.368-2.014c1.892,0.704,3.097,1.269,4.105,1.809c0.359,0.192,0.76,0.537,1.212,0.977c0.575-1.523,1.287-3.092,2.503-3.871c-0.02,0.177-0.114,0.341-0.239,0.475c0.346-0.314,0.794-0.53,1.25-0.593c-0.052,0.344-0.545,0.536-0.843,0.648c0.226-0.071,1.424-0.605,1.555-0.3c0.155,0.346-0.827,0.506-0.993,0.565c-0.126,0.042-0.25,0.088-0.373,0.138c1.518-0.152,2.969,1.103,3.391,2.658c0.03,0.112,0.061,0.237,0.088,0.367c0.556,0.207,1.563-0.01,1.886-0.21c-0.235,0.555-0.843,0.964-1.742,1.038c0.432,0.18,1.249,0.28,1.813,0.184C43.643,11.956,43.069,12.302,42.091,12.294z M39.999,8.982c-0.553,0-1.001,0.449-1.001,1.002c0,0.553,0.448,1.002,1.001,1.002S41,10.537,41,9.984C41,9.431,40.552,8.982,39.999,8.982z"/>
	<path fill="#FFFFFF" d="M61.25,26h-3V14h-2v-2.758h2V9.587C58.25,7.338,59.185,6,61.837,6h1.913v2.758h-1.395c-1.033,0-1.105,0.385-1.105,1.104v1.38h2.5L63.45,14h-2.2V26z"/>
	<path fill="#FFFFFF" d="M82.214,11.567c0.361-0.364,0.394-0.866,0.394-1.151c0-1.134-0.676-2.897-1.983-2.897c-0.41,0-0.851,0.205-1.104,0.521c-0.267,0.33-0.346,0.756-0.346,1.165c0,1.056,0.614,2.804,1.969,2.804C81.535,12.008,81.961,11.818,82.214,11.567 M81.757,14.561c-0.126-0.018-0.206-0.018-0.362-0.018c-0.143,0-0.992,0.031-1.653,0.253c-0.347,0.125-1.354,0.502-1.354,1.622c0,1.116,1.088,1.919,2.772,1.919c1.511,0,2.313-0.724,2.313-1.7C83.473,15.834,82.953,15.41,81.757,14.561z M82.874,7.565c0.362,0.301,1.118,0.93,1.118,2.128c0,1.164-0.661,1.716-1.323,2.235c-0.204,0.204-0.44,0.426-0.44,0.773c0,0.344,0.236,0.533,0.41,0.676l0.566,0.439c0.691,0.584,1.322,1.119,1.322,2.207c0,1.479-1.434,2.976-4.143,2.976C78.104,19,77,17.913,77,16.748c0-0.566,0.283-1.37,1.213-1.921c0.977-0.601,2.301-0.679,3.008-0.726c-0.22-0.285-0.473-0.582-0.473-1.07c0-0.268,0.078-0.426,0.158-0.613c-0.176,0.014-0.348,0.031-0.504,0.031c-1.67,0-2.614-1.246-2.614-2.474c0-0.724,0.331-1.527,1.007-2.109C79.693,7.125,80.764,7,81.613,7h3.246l-1.008,0.565H82.874z"/>
	<polygon fill="#FFFFFF" points="91,9.351 88.648,9.351 88.648,7 87.918,7 87.918,9.351 85.566,9.351 85.566,10.082 87.918,10.082 87.918,12.433 88.648,12.433 88.648,10.082 91,10.082 "/>
	<path fill="#FFFFFF" d="M108,18.939l5.973-6c1.367-1,1.371-3.61,0.004-4.978c-1.367-1.366-3.58-1.023-4.947-0.023l-1.028,1l-1.028-1c-1.367-1-3.58-1.343-4.947,0.023c-1.367,1.367-1.363,3.977,0.004,4.978L108,18.939z"/>
</svg>